<?xml version="1.0" standalone="no"?>
<!DOCTYPE svg PUBLIC "-//W3C//DTD SVG 1.1//EN" "http://www.w3.org/Graphics/SVG/1.1/DTD/svg11.dtd" >
<svg xmlns="http://www.w3.org/2000/svg">
<metadata>
<json>
{
	"fontFamily": "icomoon",
	"majorVersion": 1,
	"minorVersion": 0,
	"version": "Version 1.0",
	"fontId": "icomoon: 2014",
	"psName": "icomoon",
	"subFamily": "Regular",
	"fullName": "icomoon",
	"description": "Font generated by IcoMoon."
}
</json>
</metadata>
<defs>
<font id="icomoon: 2014" horiz-adv-x="512">
<font-face units-per-em="512" ascent="480" descent="-32" />
<missing-glyph horiz-adv-x="512" />
<glyph unicode="&#x20;" d="" horiz-adv-x="256" />
<glyph unicode="&#xe600;" d="M126.316 370.227l-97.482-292.454h194.967l-97.485 292.454zM126.316 327.413l78.697-236.101h-157.398l78.7 236.101zM126.316 175.255c-17.948 0-32.495-14.543-32.495-32.492s14.546-32.495 32.495-32.495c17.946 0 32.498 14.546 32.498 32.495s-14.552 32.492-32.498 32.492zM126.316 123.808c-10.454 0-18.956 8.499-18.956 18.956 0 10.45 8.502 18.956 18.956 18.956 10.451 0 18.956-8.505 18.956-18.956 0-10.454-8.505-18.956-18.956-18.956zM469.629 370.227v-47.934c-16.967 28.686-48.199 47.935-83.948 47.935-53.834 0-97.482-43.648-97.482-97.485v-97.485c0-53.837 43.648-97.482 97.482-97.482 35.746 0 66.981 19.248 83.948 47.938v-47.938h13.539v292.452h-13.539zM385.681 91.315c-46.282 0-83.94 37.661-83.94 83.942v97.485c0 46.285 37.658 83.945 83.94 83.945 46.293 0 83.948-37.658 83.948-83.945v-97.485c0-46.282-37.655-83.942-83.948-83.942z" />
<glyph unicode="&#xe601;" d="M125.924 207.832c-17.948 0-32.498-14.546-32.498-32.495s14.549-32.495 32.498-32.495c17.946 0 32.495 14.546 32.495 32.495s-14.549 32.495-32.495 32.495zM125.924 156.385c-10.451 0-18.958 8.502-18.958 18.956s8.508 18.956 18.958 18.956c10.454 0 18.956-8.502 18.956-18.956s-8.502-18.956-18.956-18.956zM129.94 272.805c9.381 10.345 15.093 24.072 15.093 39.131 0 32.196-26.095 58.291-58.288 58.291-17.983 0-34.062-8.149-44.752-20.946v20.947h-13.54v-292.454h13.54v47.909c16.976-28.669 48.199-47.909 83.931-47.909 53.843 0 97.485 43.648 97.485 97.485v0.165c0 52.486-41.492 95.272-93.469 97.382zM86.744 356.688c24.675 0 44.749-20.076 44.749-44.751 0-19.141-12.086-35.505-29.022-41.89-2.324-0.571-4.62-1.243-6.88-1.977-2.862-0.577-5.82-0.882-8.846-0.882-24.675 0-44.752 20.073-44.752 44.746-0.003 24.681 20.076 44.755 44.752 44.755zM41.989 274.597c7.416-8.877 17.431-15.505 28.866-18.742-11.73-8.044-21.6-18.591-28.865-30.868v49.61zM209.869 175.257c0-46.285-37.657-83.948-83.948-83.948-46.103 0-83.632 37.368-83.931 83.399v1.257c0.239 36.759 24.221 67.963 57.344 79.058 2.403 0.529 4.753 1.201 7.037 2.017 6.278 1.502 12.82 2.324 19.55 2.324 46.288 0 83.948-37.661 83.948-83.948v-0.159zM386.065 272.904c-35.746 0-66.981-19.254-83.948-47.94v145.263h-13.539v-292.454h13.539v47.938c16.97-28.683 48.199-47.938 83.948-47.938 53.839 0 97.485 43.648 97.485 97.485v0.165c0.003 53.839-43.645 97.482-97.485 97.482zM470.013 175.257c0-46.285-37.657-83.948-83.948-83.948s-83.948 37.661-83.948 83.948v0.165c0 46.285 37.655 83.948 83.948 83.948 46.288 0 83.948-37.661 83.948-83.948v-0.165z" />
<glyph unicode="&#xe602;" d="M302.060 223.997c0 73.165 59.523 132.688 132.682 132.688h48.743v13.54h-48.74c-80.757 0-146.224-65.471-146.224-146.227s65.471-146.224 146.225-146.224h48.743v13.536h-48.743c-73.162 0-132.685 59.526-132.685 132.688zM223.476 356.688v13.539h-48.739c-80.76 0-146.221-65.47-146.221-146.227s65.465-146.225 146.221-146.227h48.743v13.543l-51.451 0.034v265.301l51.447 0.037zM158.489 92.308c-65.525 8.038-116.44 64.031-116.44 131.692s50.912 123.654 116.44 131.692v-263.384z" />
<glyph unicode="&#xe603;" d="M469.533 370.159v-145.394c-16.947 28.652-48.134 47.88-83.837 47.88-53.763 0-97.351-43.589-97.351-97.357v-0.162c0-53.766 43.586-97.357 97.351-97.357 35.7 0 66.89 19.226 83.837 47.872v-47.545h13.522v292.062h-13.522zM469.527 175.127c0-46.225-37.601-83.834-83.832-83.834-46.225 0-83.829 37.609-83.829 83.834v0.162c0 46.225 37.603 83.834 83.829 83.834 46.231 0 83.832-37.609 83.832-83.834v-0.162zM77.619 370.227h-48.674v-292.059h48.674c80.648 0 146.031 65.38 146.031 146.028 0 80.651-65.382 146.031-146.031 146.031zM77.619 91.69h-35.151v265.014h35.151c73.068 0 132.508-59.44 132.508-132.508 0-73.059-59.44-132.506-132.508-132.506zM93.847 256.651c-17.923 0-32.453-14.526-32.453-32.452 0-17.92 14.529-32.45 32.453-32.45 17.92 0 32.45 14.529 32.45 32.45 0 17.923-14.529 32.452-32.45 32.452zM93.847 205.269c-10.439 0-18.93 8.49-18.93 18.927 0 10.439 8.49 18.93 18.93 18.93 10.436 0 18.927-8.49 18.927-18.93 0-10.436-8.49-18.927-18.927-18.927z" />
<glyph unicode="&#xe604;" d="M93.753 175.257c0-17.949 14.546-32.495 32.492-32.495 17.948 0 32.492 14.546 32.492 32.495 0 17.945-14.543 32.495-32.492 32.495-17.945 0-32.492-14.552-32.492-32.495zM145.201 175.257c0-10.454-8.499-18.955-18.956-18.955-10.451 0-18.956 8.502-18.956 18.956s8.505 18.956 18.956 18.956c10.456 0 18.956-8.502 18.956-18.956zM223.958 356.69v13.536h-195.197v-292.454h195.197v13.539h-181.655v167.887l181.655 0.003v13.536h-181.655v83.951zM483.24 259.203v13.54c0 53.837-43.645 97.482-97.485 97.482-53.837 0-97.482-43.648-97.482-97.482v-97.485c0-53.839 43.645-97.482 97.482-97.482 53.839 0 97.485 43.645 97.485 97.482h-13.539c0-46.285-37.655-83.945-83.945-83.945-46.285 0-83.942 37.657-83.942 83.945v83.945h181.427zM385.752 356.69c46.291 0 83.945-37.663 83.945-83.948h-167.887c0 46.285 37.657 83.948 83.942 83.948z" />
<glyph unicode="&#xe605;" d="M223.169 259.317v13.519h-181.197v83.868h181.194v13.522l-194.716-0.034v-292.070h13.523v83.834h181.197v13.522h-181.197v83.837zM483.553 175.479h-116.323v97.357c0 46.222 37.606 83.837 83.834 83.837v13.519c-53.766 0-97.357-43.591-97.357-97.357v-97.36h-64.87v-13.522h64.87v-84.184h13.522v84.184h116.324v13.526z" />
<glyph unicode="&#xe606;" d="M174.655 356.613h48.714v13.534h-48.714c-80.717 0-146.142-65.434-146.142-146.148s65.425-146.144 146.142-146.144l48.714-0.079v194.873h-97.428v-13.531h83.894v-167.734h-35.18c-73.12 0-132.611 59.491-132.611 132.613s59.492 132.617 132.611 132.617zM385.733 305.192c-17.937 0-32.478-14.538-32.478-32.478 0-17.937 14.541-32.475 32.478-32.475 17.934 0 32.478 14.538 32.478 32.475 0 17.94-14.543 32.478-32.478 32.478zM385.733 253.77c-10.447 0-18.941 8.496-18.941 18.944 0 10.445 8.493 18.944 18.941 18.944s18.944-8.499 18.944-18.944c0.003-10.445-8.497-18.944-18.944-18.944zM469.957 370.077v-48.325c-16.879 28.982-48.262 48.475-84.221 48.475-53.752 0-97.331-43.534-97.428-97.263h-0.003v-0.33c0-53.806 43.625-97.428 97.431-97.428 35.962 0 67.345 19.496 84.221 48.472v-48.458c0-46.262-37.629-83.897-83.894-83.897-0.054 0-0.103 0.003-0.156 0.003v0.060h-32.483v-13.531h32.31v-0.057c0.114 0 0.219-0.012 0.327-0.012 53.811 0 97.425 43.625 97.425 97.431v194.858h-13.528zM469.629 272.631c0-46.259-37.632-83.894-83.897-83.894-46.259 0-83.899 37.635-83.899 83.894v0.165c0 46.262 37.641 83.9 83.899 83.9 46.265 0 83.897-37.637 83.897-83.9v-0.165z" />
<glyph unicode="&#xe607;" d="M209.892 370.227v-194.976h-167.728v194.976h-13.54v-292.421h13.54v83.906h167.728v-83.906h13.54v292.421zM125.952 142.76c-17.951 0-32.495-14.552-32.495-32.495 0-17.949 14.543-32.492 32.495-32.492 17.946 0 32.489 14.543 32.489 32.492 0 17.943-14.543 32.495-32.489 32.495zM125.952 91.313c-10.456 0-18.956 8.502-18.956 18.952 0 10.454 8.499 18.956 18.956 18.956 10.445 0 18.95-8.502 18.95-18.956 0-10.45-8.505-18.952-18.95-18.952zM385.892 272.728c-35.738 0-66.967-19.249-83.94-47.929v145.428h-13.539v-292.42h13.539v97.445c0 46.282 37.655 83.94 83.94 83.94 46.288 0 83.94-37.655 83.94-83.94v-97.479h13.545v97.479c0 53.837-43.645 97.476-97.485 97.476z" />
<glyph unicode="&#xe608;" d="M223.621 356.648v13.539h-194.944v-13.539h41.825v-265.339h-41.825v-13.539h194.944v13.539h-42.112v265.339h42.112zM84.039 356.648h35.197v-265.339h-35.197v265.339zM167.973 91.313h-35.197v265.336h35.197v-265.336zM385.824 305.243c17.945 0 32.492 14.546 32.492 32.492s-14.546 32.489-32.492 32.489-32.489-14.546-32.489-32.489c0-17.943 14.543-32.492 32.489-32.492zM385.824 356.69c10.454 0 18.952-8.502 18.952-18.952s-8.499-18.955-18.952-18.955c-10.45 0-18.952 8.505-18.952 18.955s8.502 18.952 18.952 18.952zM483.322 259.177v13.536h-195.001v-13.536h90.735v-167.865h-90.735v-13.539h195.001v13.539h-90.729v167.865z" />
<glyph unicode="&#xe609;" d="M483.553 370.227h-194.972v-13.539h129.812v-181.43c0-46.285-37.655-83.945-83.945-83.945-0.111 0-0.216 0.009-0.327 0.009v-0.005h-45.707v-13.543l45.707 0.005c0.111 0 0.216-0.009 0.327-0.009 53.839 0 97.482 43.645 97.482 97.485v181.433h51.621v13.539zM28.45 259.203h130.062v-83.945c0-46.27-37.629-83.919-83.894-83.942h-0.105c-0.091 0-0.179 0.005-0.273 0.005v-0.005h-45.79v-13.543h46.060c0.017 0 0.037-0.003 0.054-0.003 0.020 0 0.037 0.003 0.054 0.003h0.131c53.755 0.099 97.305 43.705 97.305 97.482v83.948h51.407v13.539h-195.012v-13.539zM28.45 370.227h195.012v-13.539h-195.012v13.539zM28.45 321.482h195.012v-13.539h-195.012v13.539z" />
<glyph unicode="&#xe60a;" d="M223.459 77.856l-0.065 0.105-93.19 152.434 93.224 139.833h-194.918v-292.372l93.317 139.981 85.755-139.981h15.877zM42.044 356.69h156.091l-156.091-234.132v234.132zM483.49 77.773l-0.074 0.108-73.921 120.926 73.961 73.961h-19.146l-162.204-162.213v259.672h-13.568v-292.372l111.016 111.013 68.062-111.096z" />
<glyph unicode="&#xe60b;" d="M223.315 161.752v13.534h-181.333v194.941h-13.528v-292.454h194.862v13.534h-181.333v28.456h181.333v13.531h-181.333v28.459zM302.399 91.387v278.75h-13.534v-292.272l194.683-0.009v13.531z" />
<glyph unicode="&#xe60c;" d="M210.073 325.536v-234.064h-167.794v234.063l83.897-125.847 83.897 125.847zM223.607 370.227l-97.431-146.142-97.431 146.142v-292.286h194.862v292.286zM483.22 335.090c-0.651 19.393-16.617 34.972-36.164 34.972-12.425 0-23.407-6.298-29.926-15.863-7.080 9.614-18.474 15.863-31.303 15.863-12.837 0-24.229-6.249-31.306-15.863-6.522 9.566-17.499 15.863-29.929 15.863-19.544 0-35.51-15.579-36.161-34.972h-0.034v-257.317h13.531v257.263h0.060c0.615 11.95 10.502 21.495 22.602 21.495 12.024 0 21.856-9.412 22.594-21.245 0.005-0.085 0.009-0.168 0.012-0.25h0.005v-257.26h13.531v257.26h0.079c1.869 12.149 12.353 21.495 25.014 21.495 12.658 0 23.142-9.347 25.005-21.495h0.086v-257.26h13.531v257.26h0.005c0.003 0.083 0.005 0.168 0.012 0.253 0.743 11.833 10.575 21.243 22.591 21.243 12.103 0 21.99-9.543 22.605-21.495h0.060v-257.26h13.534v257.314h-0.031z" />
<glyph unicode="&#xe60d;" d="M385.937 356.605c46.262 0 83.897-37.638 83.897-83.897v-194.935h13.536v194.935c0 53.811-43.623 97.431-97.433 97.431v0c-53.808 0-97.428-43.62-97.428-97.431v-194.935h13.531v194.935c0 46.257 37.635 83.897 83.897 83.897zM223.494 370.227h-13.531v-271.988l-181.331 271.986v-292.286h194.862v292.289zM42.166 91.466v234.067l156.041-234.067h-156.041z" />
<glyph unicode="&#xe60e;" d="M483.49 370.216h-16.211l-15.613-25.534c-17.294 15.761-40.283 25.372-65.524 25.372-53.746 0-97.32-43.571-97.32-97.317v-97.647c0-23.219 8.141-44.53 21.717-61.255l-21.748-35.57h15.855l15.508 25.315c17.346-16.017 40.519-25.81 65.988-25.81 53.748 0 97.317 43.571 97.317 97.32v97.647c0 23.362-8.24 44.797-21.962 61.571l21.993 35.909zM302.333 175.090v97.647c0 46.205 37.595 83.8 83.806 83.8 22.636 0 43.199-9.040 58.294-23.683l-126.316-206.62c-9.918 13.77-15.784 30.637-15.784 48.856zM469.939 272.736v-97.647c0-46.208-37.592-83.803-83.8-83.803-22.866 0-43.614 9.213-58.743 24.113l126.518 206.538c10.067-13.827 16.026-30.828 16.026-49.201zM125.829 256.526c-17.912 0-32.438-14.524-32.438-32.444 0-17.915 14.526-32.438 32.438-32.438 17.915 0 32.438 14.524 32.438 32.438 0.003 17.92-14.524 32.443-32.438 32.443zM125.829 205.159c-10.436 0-18.921 8.488-18.921 18.921s8.485 18.921 18.921 18.921 18.921-8.488 18.921-18.921-8.485-18.921-18.921-18.921zM125.829 370.227c-53.749 0-97.32-43.571-97.32-97.32v-97.647c0-53.746 43.571-97.317 97.32-97.317s97.317 43.571 97.317 97.317v97.647c0 53.746-43.569 97.32-97.317 97.32zM209.63 175.587v-0.327c0-46.205-37.595-83.8-83.8-83.8-46.217 0-83.806 37.595-83.806 83.8v97.647c0 46.208 37.59 83.803 83.806 83.803 46.205 0 83.8-37.595 83.8-83.803v-97.32z" />
<glyph unicode="&#xe60f;" d="M125.912 305.183c-17.931 0-32.461-14.529-32.461-32.461 0-17.928 14.529-32.461 32.461-32.461 17.929 0 32.458 14.532 32.458 32.461s-14.532 32.461-32.458 32.461zM125.912 253.787c-10.442 0-18.936 8.494-18.936 18.933 0 10.442 8.493 18.935 18.936 18.935 10.436 0 18.935-8.493 18.935-18.935 0-10.439-8.499-18.933-18.936-18.933zM125.912 370.185c-53.726 0-97.291-43.512-97.374-97.218h-0.009v-195.2h13.525v145.377c16.953-28.652 48.145-47.88 83.854-47.88 53.777 0 97.379 43.597 97.379 97.38v0.162c0.003 53.783-43.6 97.379-97.376 97.379zM209.769 272.643c0-46.24-37.626-83.854-83.857-83.854-46.237 0-83.854 37.618-83.854 83.854v0.162c0 46.24 37.621 83.854 83.854 83.854s83.857-37.618 83.857-83.854v-0.162zM386.085 370.227c-35.709 0-66.907-19.234-83.854-47.889v47.807h-13.522v-292.372h13.522v145.408c16.953-28.649 48.151-47.877 83.854-47.877 53.78 0 97.382 43.597 97.382 97.377v0.168c0.003 53.78-43.599 97.379-97.382 97.379zM469.942 272.683c0-46.237-37.612-83.854-83.854-83.854-46.236 0-83.854 37.62-83.854 83.854v0.168c0 46.233 37.62 83.851 83.854 83.851 46.245 0 83.854-37.62 83.854-83.851v-0.168z" />
<glyph unicode="&#xe610;" d="M126.165 370.227c-53.78 0-97.374-43.599-97.374-97.379v-97.704c0-53.769 43.594-97.371 97.374-97.371 25.403 0 48.526 9.736 65.861 25.666l15.625-25.503h15.863l-0.071 0.111-21.777 35.621c13.671 16.768 21.874 38.158 21.874 61.474v97.707c0.003 53.78-43.594 97.38-97.374 97.38zM210.017 175.474v-0.33c0-18.313-5.922-35.269-15.929-49.072l-30.054 49.155h-15.983l36.731-59.961c-15.13-14.811-35.817-23.967-58.612-23.967-46.24 0-83.852 37.618-83.852 83.846v97.704c0 46.239 37.615 83.851 83.852 83.851 46.234 0 83.852-37.612 83.852-83.851v-97.374zM483.209 77.935l-0.068 0.111-63.187 103.35c36.933 13.836 63.232 49.44 63.232 91.204v0.165c0 53.783-43.594 97.374-97.374 97.374-53.723 0-97.28-43.514-97.368-97.212h-0.005v-0.327c0-53.774 43.597-97.374 97.374-97.374 7.063 0 13.947 0.776 20.585 2.202l60.948-99.496h15.863zM385.812 188.752c-46.233 0-83.851 37.618-83.851 83.851v0.165c0 46.239 37.618 83.851 83.851 83.851 46.236 0 83.851-37.612 83.851-83.851v-0.165c0-36.815-23.865-68.147-56.932-79.385l-48.586 79.465h-16.103l50.793-82.91c-4.247-0.668-8.596-1.021-13.024-1.021z" />
<glyph unicode="&#xe611;" d="M223.365 272.606v0.165c0 53.831-43.631 97.459-97.457 97.459-35.735 0-66.961-19.251-83.925-47.926v47.838h-13.534v-292.369h13.534v145.3c16.967-28.683 48.191-47.926 83.925-47.926 7.060 0 13.94 0.771 20.579 2.199l60.996-99.575h15.877l-0.071 0.114-63.232 103.427c36.978 13.847 63.306 49.49 63.306 91.296zM125.909 188.683c-46.273 0-83.925 37.649-83.925 83.923v0.165c0 46.279 37.652 83.923 83.925 83.923 46.276 0 83.92-37.644 83.92-83.923v-0.165c0-46.274-37.644-83.923-83.919-83.923zM126.228 305.172c-17.943 0-32.486-14.538-32.486-32.484 0-17.943 14.543-32.486 32.487-32.486 17.946 0 32.487 14.543 32.487 32.486 0 17.946-14.541 32.484-32.487 32.484zM126.228 253.738c-10.448 0-18.953 8.502-18.953 18.95 0 10.451 8.505 18.947 18.953 18.947 10.45 0 18.95-8.496 18.95-18.947 0.003-10.447-8.499-18.95-18.95-18.95zM386.091 370.142c-35.732 0-66.95-19.243-83.919-47.915v47.915h-13.534v-292.369h13.534v194.916c0 46.279 37.646 83.923 83.919 83.923 46.279 0 83.928-37.644 83.928-83.923h13.534c0 53.826-43.634 97.454-97.462 97.454z" />
<glyph unicode="&#xe612;" d="M386.958 272.736v0.032h-1.072c-0.020 0-0.040 0-0.054 0h-42.496c-22.904 0.276-41.449 18.986-41.449 41.952 0 23.123 18.799 41.935 41.921 41.97h0.381c23.117-0.034 41.916-18.848 41.916-41.97h13.536c0 30.521-24.633 55.279-55.103 55.495v0.014h-0.35c-0.020 0-0.037 0-0.057 0v0h-0.276c-0.020 0-0.034 0-0.054 0h-0.37v-0.014c-30.459-0.225-55.089-24.977-55.089-55.495 0-30.424 24.49-55.134 54.835-55.493v0h0.154c0.176 0 0.341-0.020 0.524-0.020v0.020h42.018c46.265-0.034 83.891-37.678 83.891-83.94v-0.037c0-46.282-37.649-83.94-83.94-83.94-46.282 0-83.945 37.658-83.945 83.94v0.037h-13.539v-0.037c0-53.831 43.648-97.482 97.482-97.482 53.839 0 97.482 43.651 97.482 97.482v0.037c0.009 53.447-43.028 96.839-96.347 97.448zM126.165 194.241c10.45 0 18.958-8.505 18.958-18.952 0-10.459-8.507-18.964-18.958-18.964s-18.956 8.505-18.956 18.964c0 10.447 8.507 18.952 18.956 18.952zM126.165 207.781c-17.945 0-32.492-14.552-32.492-32.492 0-17.952 14.546-32.498 32.492-32.498 17.948 0 32.495 14.546 32.495 32.498 0 17.94-14.547 32.492-32.495 32.492v0zM127.297 272.736v0.032h-1.075c-0.020 0-0.037 0-0.057 0h-42.496c-22.904 0.276-41.449 18.986-41.449 41.952 0 23.123 18.805 41.935 41.921 41.97h0.381c23.123-0.034 41.913-18.848 41.913-41.97h13.539c0 30.521-24.63 55.279-55.1 55.495v0.014h-0.35c-0.020 0-0.037 0-0.054 0v0h-0.276c-0.017 0-0.037 0-0.051 0h-0.37v-0.014c-30.459-0.225-55.089-24.977-55.089-55.495 0-30.424 24.491-55.134 54.838-55.493v0h0.148c0.177 0 0.347-0.020 0.523-0.020v0.020h42.026c46.259-0.034 83.888-37.678 83.888-83.94v-0.037c0-46.282-37.655-83.94-83.945-83.94-46.282 0-83.945 37.658-83.945 83.94v0.037h-13.537v-0.037c0-53.831 43.651-97.482 97.482-97.482 53.84 0 97.482 43.651 97.482 97.482v0.037c0 53.447-43.036 96.839-96.35 97.448z" />
<glyph unicode="&#xe613;" d="M223.397 370.227h-194.867v-13.528h64.956v-278.764h64.953v278.764h64.958v13.528zM144.907 91.469h-37.891v265.23h37.891v-265.23zM483.47 356.699v13.528h-194.865v-13.528h90.621v-35.189h-90.621v-13.528h90.621v-35.186h-90.621v-13.531h90.621v-181.492h13.531v181.493h90.712v13.531h-90.712v35.186h90.712v13.528h-90.712v35.189z" />
<glyph unicode="&#xe614;" d="M469.76 370.227v-194.949c0-46.282-37.652-83.94-83.94-83.94-46.282 0-83.934 37.655-83.934 83.94v194.95h-13.536v-194.95c0-53.834 43.639-97.479 97.474-97.479 35.743 0 66.972 19.251 83.94 47.935v-47.96h13.536v292.454h-13.539zM28.703 370.227v-194.949c0-53.834 43.639-97.479 97.477-97.479 53.834 0 97.476 43.645 97.476 97.479v194.95h-194.952zM210.117 175.277c0-46.282-37.655-83.94-83.936-83.94-46.285 0-83.939 37.655-83.939 83.94v181.41h167.877v-181.41zM126.18 142.794c17.945 0 32.489 14.546 32.489 32.492 0 17.952-14.547 32.492-32.489 32.492-17.945 0-32.492-14.541-32.492-32.492 0-17.945 14.546-32.492 32.492-32.492zM126.18 194.245c10.45 0 18.953-8.505 18.953-18.958 0-10.447-8.502-18.952-18.953-18.952-10.454 0-18.956 8.505-18.956 18.952 0 10.454 8.502 18.958 18.956 18.958z" />
<glyph unicode="&#xe615;" d="M28.598 370.213l97.482-292.443 97.479 292.443h-194.961zM47.38 356.677h157.394l-78.697-236.086-78.697 236.086zM126.077 337.718c-17.945 0-32.495-14.541-32.495-32.492 0-17.943 14.549-32.492 32.495-32.492s32.492 14.549 32.492 32.492c0 17.948-14.547 32.492-32.492 32.492zM126.077 286.274c-10.454 0-18.956 8.505-18.956 18.952 0 10.453 8.502 18.958 18.956 18.958 10.451 0 18.956-8.505 18.956-18.958-0.003-10.447-8.505-18.952-18.956-18.952zM483.405 370.227h-14.274l-83.212-249.631-83.209 249.631h-14.271l97.479-292.44z" />
<glyph unicode="&#xe616;" d="M483.464 129.894v240.315h-13.534v-240.845h0.034c-0.284-21.034-17.468-38.062-38.574-38.062-21.274 0-38.582 17.308-38.582 38.587v240.318h-13.534v-240.315c0-21.279-17.305-38.587-38.582-38.587-21.106 0-38.295 17.027-38.574 38.062h0.034v240.842h-13.528v-240.315h-0.051c0-28.786 23.333-52.121 52.116-52.121 19.45 0 36.394 10.664 45.349 26.456 8.954-15.793 25.904-26.456 45.349-26.456 28.788 0 52.116 23.336 52.116 52.121h-0.040zM223.351 370.227h-13.528l0.017-247.577-75.77 113.65 49.738 74.601h-115.743l49.749-74.61-75.784-113.641 0.023 247.577h-13.528l-0.034-292.269 97.445 146.142 97.445-146.142-0.029 292.269zM158.53 297.367l-32.589-48.873-32.589 48.873h65.177z" />
<glyph unicode="&#xe617;" d="M223.263 369.988h-194.81l89.91-146.153-89.91-146.065h194.81l-89.915 146.065 89.916 146.153zM199.057 356.46l-73.199-118.983-73.199 118.983h146.398zM52.665 91.304l73.193 118.9 73.188-118.9h-146.381zM394.135 224.273l89.413 145.954h-16.233l-81.206-132.83-81.206 132.83h-16.233l89.418-145.954-89.418-146.262h15.866l81.573 133.157 81.573-133.157h15.866l-0.060 0.108z" />
<glyph unicode="&#xe618;" d="M483.3 370.221h-13.536c0-46.279-37.655-83.934-83.94-83.934-46.282 0-83.936 37.655-83.936 83.934h-13.536c0-51.555 40.036-93.73 90.704-97.212v-195.214h13.539v195.214c50.671 3.482 90.707 45.656 90.707 97.212zM126.18 240.259c17.945 0 32.492 14.549 32.492 32.492 0 17.948-14.547 32.489-32.492 32.489s-32.495-14.541-32.495-32.489c0-17.943 14.549-32.492 32.495-32.492zM126.18 291.701c10.45 0 18.953-8.502 18.953-18.95 0-10.453-8.502-18.952-18.953-18.952-10.454 0-18.956 8.499-18.956 18.952 0 10.447 8.502 18.95 18.956 18.95zM28.701 370.227v-97.502c0-51.561 40.032-93.741 90.71-97.214v-97.741h13.537v97.741c50.674 3.473 90.709 45.654 90.709 97.214v97.502h-194.956zM210.117 272.728c0-46.282-37.655-83.942-83.936-83.942-46.285 0-83.939 37.657-83.939 83.942v83.965h167.879v-83.965z" />
<glyph unicode="&#xe619;" d="M155.6 259.203h67.826v13.543h-59.529l59.719 97.482h-194.972v-13.542h170.8l-51.424-83.94h-119.569v-13.543h111.269l-111.144-181.43h195.041l-89.58 146.233 21.564 35.197zM199.444 91.31h-146.696l73.347 119.737 73.35-119.737zM483.553 370.227h-194.972v-13.542h170.798l-51.428-83.94h-119.37v-13.543h111.079l-111.152-181.43h195.047v13.536h-170.869l102.853 167.893h68.017v13.543h-59.725z" />
</font>
</defs>
</svg>
